<svg width="21" height="21" viewBox="0 0 21 21" fill="none" xmlns="http://www.w3.org/2000/svg">
<g clip-path="url(#clip0)">
<path d="M9.18734 6.02649C9.18734 6.02649 8.7396 5.2291 8.11488 5.7015C7.49016 6.17391 8.12326 6.80605 8.12326 6.80605L12.8725 13.0921C12.8725 13.0921 14.36 14.6166 13.2147 15.4586C12.0685 16.2991 11.0314 14.4828 11.0314 14.4828L4.80627 6.24071C4.80627 6.24071 3.18181 4.29335 4.98893 2.92729C6.79632 1.56366 8.22807 3.66447 8.22807 3.66447L15.2234 12.9256C15.2234 12.9256 17.8653 15.945 15.1218 18.0168C12.3783 20.0885 10.2298 16.6964 10.2298 16.6964L4.91722 9.66515C4.91722 9.66515 4.4365 8.89371 3.84492 9.33899C3.25359 9.7867 3.86552 10.459 3.86552 10.459L9.95972 18.5271C9.95972 18.5271 12.5187 21.6086 15.9191 19.0396C19.3213 16.4708 17.0572 13.165 17.0572 13.165L8.68008 2.076C8.68008 2.076 6.80382 -0.17063 4.15748 1.82723C1.51114 3.82509 3.15902 6.24474 3.15902 6.24474L10.3651 15.7862C10.3651 15.7862 11.8107 18.1741 14.0269 16.499C16.2455 14.8243 14.3077 12.8081 14.3077 12.8081L9.18734 6.02649Z" fill="#393A3C"/>
</g>
<defs>
<clipPath id="clip0">
<rect width="18" height="18" fill="white" transform="translate(0 18.2607) rotate(-82.0655)"/>
</clipPath>
</defs>
</svg>
